<svg xmlns="http://www.w3.org/2000/svg" xmlns:xlink="http://www.w3.org/1999/xlink" width="123.683" height="56.466" viewBox="0 0 123.683 56.466">
  <defs>
    <linearGradient id="linear-gradient" y1="0.5" x2="1" y2="0.5" gradientUnits="objectBoundingBox">
      <stop offset="0" stop-color="#ffd50f"/>
      <stop offset="1" stop-color="#e12916"/>
    </linearGradient>
  </defs>
  <g id="Logo" transform="translate(-2167.523 -677.365)">
    <path id="Path_3834" data-name="Path 3834" d="M194.868,363.393a4.539,4.539,0,0,0,.264-3.492,3.439,3.439,0,0,0-2.545-1.9H153.258a3.342,3.342,0,0,0-3.648,3.381v14.148a3.369,3.369,0,0,0,1.671,2.778c1.361.851,2.222.6,3.935.6H164.2q-3.887,10.992-7.73,21.989c-.523,1.447-3.393,9.2-3.393,10.222,0,2.031,2.49,3.2,3.737,3.2H174.7c1.456,0,2.867-1.924,2.937-2.759l14.948-41.642C192.63,369.4,194.639,364.064,194.868,363.393Z" transform="translate(2017.913 319.509)" fill="#111"/>
    <path id="Path_3835" data-name="Path 3835" d="M157.518,365.538l.089,14.148h15.838l-12.368,35.592h17.8l17.618-49.739Z" transform="translate(2013.309 315.119)" fill="#e5007b" fill-rule="evenodd"/>
    <path id="Path_3836" data-name="Path 3836" d="M298.228,403.3q-.235-.437-.489-.819a3.746,3.746,0,0,0,.3-1.475v-6.058a3.76,3.76,0,0,0-3.76-3.76H282.725a8.838,8.838,0,0,0-6.64,3.221,14.083,14.083,0,0,0-9.151-3.289,14.266,14.266,0,0,0-5.368,1.036,16.816,16.816,0,0,0-2.014,1,3.759,3.759,0,0,0-3.3-1.963h-7.516a3.76,3.76,0,0,0-3.76,3.76v1.737a13.994,13.994,0,0,0-5.806-4.408,15.33,15.33,0,0,0-5.662-1.11,13.318,13.318,0,0,0-5.95,1.355c-.511.252-1,.532-1.466.824a3.756,3.756,0,0,0-3.374-2.108H215.2a3.761,3.761,0,0,0-3.327,2.007c-.184.284-.6.866-1.083,1.539-.508-.677-.937-1.26-1.13-1.548a3.761,3.761,0,0,0-3.322-2h-7.628a3.76,3.76,0,0,0-3.76,3.76v21.427a3.76,3.76,0,0,0,3.76,3.76h7.516a3.76,3.76,0,0,0,3.76-3.76v-1.075a3.892,3.892,0,0,0,.831.088,4.012,4.012,0,0,0,.624-.048v1.036a3.76,3.76,0,0,0,3.76,3.76h7.516a3.758,3.758,0,0,0,3.433-2.231c.418.255.846.5,1.3.723a13.9,13.9,0,0,0,6.115,1.4,14.649,14.649,0,0,0,7.179-1.87,3.757,3.757,0,0,0,3.283,1.929c.686,0,1.29.015,1.822.028.458.011.891.022,1.311.022a12.335,12.335,0,0,0,6.23-1.537,9.711,9.711,0,0,0,2.1-1.416q.068-.061.133-.126l1.125-1.118.064-.065c.1.094.2.186.3.278a15.144,15.144,0,0,0,9.955,3.825,14.018,14.018,0,0,0,8.444-2.779,3.758,3.758,0,0,0,3.625,2.776h11.555a8.422,8.422,0,0,0,7.376-4.2A13.476,13.476,0,0,0,298.228,403.3Z" transform="translate(1991.517 300.227)" fill="#111"/>
    <path id="Path_3837" data-name="Path 3837" d="M337.905,410.672a3,3,0,1,1-1.853-2.746,3.008,3.008,0,0,1,1.853,2.746Zm-13.574-1.234-.112-9.423H316.7v10.769c0,3.51-1.695,2.917-4.712,2.917v7.74c3.737,0,4.722.405,7.668-1.082a5.954,5.954,0,0,0,1.278-.853l1.125-1.118a9.5,9.5,0,0,0,2.157-6.594h.112c0,2.419,1.288,4.285,2.628,6.011a4.4,4.4,0,0,0,.6.635c5.021,4.4,12.242,3.667,15.91-1.421a10.586,10.586,0,0,0,.983-1.6c2.394-4.8.94-9.709-2.76-13.023a10.589,10.589,0,0,0-10.727-1.7,10.462,10.462,0,0,0-3.185,1.976,11.575,11.575,0,0,0-2.25,2.8A9.273,9.273,0,0,0,324.331,409.438Z" transform="translate(1923.37 295.086)" fill-rule="evenodd" fill="url(#linear-gradient)"/>
    <path id="Path_3838" data-name="Path 3838" d="M203.523,421.657h7.517V411.112l4.038,5.161c.636.867.47.852,1.171-.064l3.765-4.873v10.321h7.517V400.23h-7.517c-.078.293-4.051,5.708-4.375,5.946-.182-.133-4.395-5.6-4.487-5.946h-7.629Z" transform="translate(1986.523 294.92)" fill-rule="evenodd" fill="url(#linear-gradient)"/>
    <path id="Path_3839" data-name="Path 3839" d="M275.212,410.789a3,3,0,1,1-1.853-2.746,3.008,3.008,0,0,1,1.853,2.746Zm-13.687-.336a10.682,10.682,0,0,0,18.09,7.994,10.328,10.328,0,0,0,2.141-2.907,10.733,10.733,0,0,0-5.406-14.64,10.705,10.705,0,0,0-14.826,9.553Z" transform="translate(1952.753 295.018)" fill-rule="evenodd" fill="url(#linear-gradient)"/>
    <path id="Path_3840" data-name="Path 3840" d="M392.281,405.607a11.6,11.6,0,0,0,.752,5.193c1.355,3.124,3.435,3,5.979,3,1.172,0,3.7-.376,3.7.785,0,.564-.656.785-1.234.785h-7.628v6.058h11.555c5.431,0,6.235-7.446,4.227-11.182-1.466-2.726-3.558-2.5-6.022-2.5-1.146,0-3.478.352-3.478-.785,0-.564.656-.785,1.234-.785H409V400.11H397.441C394.641,400.11,392.281,402.86,392.281,405.607Z" transform="translate(1876.623 294.99)" fill-rule="evenodd" fill="url(#linear-gradient)"/>
    <path id="Path_3841" data-name="Path 3841" d="M158.171,360.95l-2.314-.267,2.67-3.025-3.025,2.758-.356-2.313-.178,2.313-2.67-2.4,2.314,2.759-2.314.178,2.4.356s-2.843,3.028-2.937,3.114,3.2-2.847,3.2-2.847l.267,2.225.178-2.225,3.114,2.847-2.67-3.292Z" transform="translate(2016.66 319.707)" fill="#e5c67a" fill-rule="evenodd"/>
    <path id="Path_3842" data-name="Path 3842" d="M201.447,389.482l-7.853-.337,2.917-3.478-3.365,2.917-.337-7.628-.337,7.628-3.253-2.692,2.8,3.253-7.853.337,7.853.224L189,393.3l3.478-3.141.224,7.853.449-7.853,3.141,2.8-2.692-3.141Z" transform="translate(1997.791 306.141)" fill="#e5c67a" fill-rule="evenodd"/>
    <path id="Path_3843" data-name="Path 3843" d="M290.989,422.3l-5.711-.244,2.121-2.517-2.448,2.111-.245-5.521-.245,5.521-2.366-1.948,2.04,2.354-5.711.244,5.711.162-2.2,2.6,2.529-2.273.163,5.683.326-5.683,2.285,2.03-1.958-2.273Z" transform="translate(1942.914 285.661)" fill="#e5c67a" fill-rule="evenodd"/>
    <path id="Path_3844" data-name="Path 3844" d="M342.359,398.949l-7.343-.312,2.727-3.226-3.147,2.706-.315-7.076-.315,7.076-3.042-2.5,2.622,3.018-7.343.312,7.343.208-2.832,3.33,3.252-2.914.21,7.285.42-7.285,2.937,2.6-2.518-2.914Z" transform="translate(1915.094 300.271)" fill="#e5c67a" fill-rule="evenodd"/>
    <path id="Path_3845" data-name="Path 3845" d="M331.3,402.934c-.551-1.107.449-4.375.449-4.375s-1.2,2.741-2.468,3.365-10.321-3.029-10.321-3.029,8.227,3.338,9.311,4.712-.336,4.712-.336,4.712,1.74-3.53,2.58-3.814,10.882,3.478,10.882,3.478S331.846,404.041,331.3,402.934Z" transform="translate(1919.315 295.893)" fill="#e5c67a" fill-rule="evenodd"/>
  </g>
</svg>
