<svg id="Layer_1" data-name="Layer 1" xmlns="http://www.w3.org/2000/svg" viewBox="0 0 283.46 283.46"><defs><style>.cls-1{fill:#fff;}</style></defs><title>ball_icon</title><path id="FOOTBALL" class="cls-1" d="M254.39,242.68l.82-.9q.94-1,1.85-2.08l.78-.91,1.27-1.5.82-1,1.2-1.48.79-1,1.23-1.61.68-.9q.82-1.1,1.62-2.22l.24-.33h0a141.1,141.1,0,0,0,26.12-82c0-1.12,0-2.23,0-3.34,0-.35,0-.71,0-1.06,0-.77-.05-1.54-.09-2.31,0-.39,0-.79-.06-1.18,0-.75-.09-1.51-.14-2.26,0-.36,0-.73-.08-1.09-.08-1-.16-2-.26-2.94l0-.4q-.16-1.58-.36-3.14c0-.39-.1-.77-.15-1.16-.09-.69-.19-1.39-.29-2.08-.06-.44-.13-.87-.2-1.3-.11-.66-.21-1.31-.33-2l-.22-1.28c-.14-.75-.29-1.51-.44-2.26-.1-.47-.19-1-.29-1.42q-.26-1.22-.53-2.44l-.33-1.41-.41-1.67c-.13-.51-.26-1-.39-1.52l-.42-1.54c-.14-.52-.29-1-.44-1.55s-.29-1-.43-1.46c-.31-1-.62-2-1-3-.13-.39-.25-.79-.38-1.18-.2-.59-.4-1.18-.61-1.76l-.4-1.15q-.32-.89-.66-1.78l-.4-1.05c-.24-.62-.47-1.24-.72-1.86l-.29-.71q-1.35-3.33-2.87-6.57l-.3-.65c-.32-.67-.64-1.34-1-2l-.3-.61q-.52-1-1.06-2.09l-.06-.11Q274,77.85,272,74.44l-.15-.25c-.42-.71-.85-1.42-1.29-2.12l-.2-.33q-2.83-4.53-6-8.83l0-.05h0a141.88,141.88,0,0,0-77.46-53l-.35-.09-2.31-.59L183.56,9l-2.26-.53-.52-.11c-1.57-.35-3.16-.67-4.75-1l-.35-.07L173.78,7l-1.3-.21-1.74-.27-1.54-.22-1.59-.21-2.08-.24-1.44-.15c-.92-.09-1.85-.17-2.77-.25l-1.2-.09L158,5.22l-1.23-.06-2.26-.09-1.08,0q-1.66,0-3.33,0c-1.11,0-2.22,0-3.32,0l-1.07,0-2.26.09-1.23.06L140,5.36l-1.18.08c-1,.08-2.05.17-3.07.27l-1.32.14-1.84.21L131,6.29l-1.42.2-1.83.28-1.09.18q-3.61.6-7.15,1.38l-.39.09L116.66,9l-.39.1A142,142,0,0,0,29.76,71.8l-.14.22q-.68,1.1-1.34,2.2l-.08.13q-2.69,4.53-5.05,9.27l-.26.53q-.51,1-1,2.08l-.25.54q-1.56,3.35-3,6.78l-.22.56c-.26.64-.51,1.28-.75,1.93l-.37,1c-.23.61-.45,1.23-.68,1.84l-.38,1.08c-.21.61-.43,1.22-.63,1.83-.11.32-.21.66-.32,1-.36,1.1-.7,2.2-1,3.31l-.4,1.35c-.15.54-.3,1.08-.45,1.61l-.4,1.48c-.14.52-.27,1-.4,1.56s-.27,1.08-.39,1.61-.23,1-.35,1.46c-.18.78-.35,1.57-.51,2.35-.11.51-.21,1-.31,1.53-.15.74-.29,1.48-.42,2.22-.08.43-.15.86-.23,1.3q-.17,1-.32,1.94c-.07.44-.14.88-.2,1.31-.1.69-.2,1.38-.29,2.07-.05.39-.11.77-.15,1.17-.13,1-.25,2.09-.36,3.14,0,.13,0,.27,0,.4q-.15,1.46-.26,2.93c0,.36-.05.73-.08,1.1-.05.75-.1,1.5-.14,2.25,0,.4,0,.79-.06,1.18,0,.77-.06,1.54-.09,2.31,0,.35,0,.7,0,1.06,0,1.11,0,2.23,0,3.34a141.13,141.13,0,0,0,31.46,89l.3.38,1.5,1.8.43.5,1.53,1.77.35.39q3.5,4,7.28,7.64l.36.35c.57.55,1.14,1.09,1.71,1.63l.45.42,1.77,1.62.27.24q4,3.57,8.26,6.83l.35.26c.65.5,1.31,1,2,1.47l.39.29c.68.5,1.37,1,2.06,1.47l.08.06q4.51,3.16,9.28,6l.28.17,2.23,1.28.28.16q6,3.38,12.44,6.18l.23.1,2.48,1,.16.06a141.94,141.94,0,0,0,125.81-9l.34-.21q1.08-.63,2.15-1.3l.37-.23q4.49-2.79,8.73-5.91l.57-.42,1.69-1.27.78-.6,1.59-1.25.84-.68,1.53-1.25.78-.66q1.43-1.2,2.82-2.45l.83-.74,1.24-1.14,1.07-1,1.16-1.11,1.12-1.09,1.09-1.09,1.17-1.2,1-1ZM210,218.51l-25.07-34.17,15.46-47.57,39.89-13.06L274.9,157.5a124.16,124.16,0,0,1-17.36,53.73Zm34.59-154-8,48-40,13.11L156.09,96.22V54.07l43.28-22.59a125.2,125.2,0,0,1,39.3,26.66Q241.76,61.23,244.6,64.5ZM100.93,31.43l43.39,22.64V96.22L103.75,125.7,63.54,112.53l-8-48q2.84-3.26,5.93-6.35A125.07,125.07,0,0,1,100.93,31.43ZM42.57,211.14a124.11,124.11,0,0,1-17.3-53.64l34.62-33.79,40.18,13.16,15.51,47.75L90.7,218.51Zm78.88,57.6-21.27-43.26L125,191.59h50.62l24.86,33.89-21.2,43.12a126.73,126.73,0,0,1-57.88.15Z" transform="translate(-8.35 -5)"/></svg>