<?xml version="1.0" encoding="utf-8"?>
<!-- Generator: Adobe Illustrator 21.1.0, SVG Export Plug-In . SVG Version: 6.00 Build 0)  -->
<svg version="1.1" id="Layer_1" xmlns="http://www.w3.org/2000/svg" xmlns:xlink="http://www.w3.org/1999/xlink" x="0px" y="0px"
	 viewBox="0 0 1200 1200" style="enable-background:new 0 0 1200 1200;" xml:space="preserve">
<style type="text/css">
	.st0{fill:#FFFFFF;}
</style>
<g>
	<g>
		<path class="st0" d="M241.7,653.7c10.3-5.1,21.1-9.3,32.2-12.8L200.6,225c-0.5-3,0.6-5.2,1.4-6.2c0.7-1.1,2.4-2.9,5.4-3.4
			l274.8-48.5l6.3-35.6l-287,50.6c-11.1,2-20.8,8.1-27.3,17.4c-6.5,9.3-9,20.5-7,31.6L241.7,653.7z"/>
		
			<rect x="248.7" y="342.1" transform="matrix(0.9848 -0.1737 0.1737 0.9848 -61.4555 55.3154)" class="st0" width="73.4" height="73.4"/>
		<polygon class="st0" points="335.9,332.7 348.6,404.9 420.9,392.2 408.2,319.9 		"/>
		<polygon class="st0" points="443.1,388.3 456.7,311.4 429,316.3 441.7,388.5 		"/>
		
			<rect x="265.1" y="435.2" transform="matrix(0.9848 -0.1737 0.1737 0.9848 -77.3792 59.5904)" class="st0" width="73.4" height="73.4"/>
		<polygon class="st0" points="431.7,453.3 424.6,413 352.3,425.7 365.1,498 425.7,487.3 		"/>
		<polygon class="st0" points="360.7,594.7 347.9,522.4 275.7,535.2 288.4,607.4 		"/>
		<polygon class="st0" points="421.8,509.4 368.7,518.8 381.5,591 408.2,586.3 		"/>
		<path class="st0" d="M338.8,631.2c9.7,0,19.3,0.7,28.6,1.9l-3.1-17.7l-72.3,12.7l1.4,7.7C308.1,632.9,323.3,631.2,338.8,631.2z"/>
		<path class="st0" d="M398.8,639.5l5.5-31.1l-19.2,3.4l4.5,25.4C392.7,637.9,395.8,638.7,398.8,639.5z"/>
		<path class="st0" d="M314.9,240.2c-1.5-8.8-8.7-17.8-29.5-14.1c-2.6,0.5-5.3,1.2-7.9,1.8c-2.6,0.7-5.2,1.4-7.9,1.9
			c-4.2,0.7-8.5,1.3-12.8,1.8c-4.2,0.6-8.5,1.2-12.7,1.9c-3.5,0.6-7.9,3.5-7.1,7.8c1.4,7.9,9.8-1.7,12.2,15.6l4.5,33.1
			c2.7,19.1-6,13.2-4.8,20.3c0.7,4,5.1,5.3,8.6,4.7c4-0.7,7.9-1.5,11.7-2.4c3.9-0.8,7.8-1.6,11.7-2.3c3.5-0.6,7-1.1,10.4-1.6
			c3.5-0.4,7-0.9,10.9-1.6c22.9-4,28.1-19.4,26.1-30.8c-1.7-9.6-10.9-14.2-15.9-15.2c-1.2-0.4-2.6-0.6-2.8-2.1
			c-0.3-1.5,0.6-2.3,1.5-3.4C314.7,251.4,315.9,245.4,314.9,240.2z M277.1,256.3l-1.6-9.3c-0.6-3.3-1.6-6.7,2.6-7.4
			c6.3-1.1,9.1,5,10,10.1c1.1,6.3,0.4,11.4-6.5,12.6C278,262.9,277.8,260.7,277.1,256.3z M290.1,296.7c-3.5,0.6-5.8,0.7-8.1-12.6
			l-1-5.7c-0.3-2.4,0.2-4.4,3.7-5c8-1.4,11.1,4.4,12.4,11.4C298.1,290.7,296.6,295.5,290.1,296.7z"/>
		<path class="st0" d="M369.5,219c-1.4-7.8-15.4-5.5-22.3-4.3c-2.3,0.4-25.6,4.5-24.1,12.7c0.8,4.3,5.3,3.9,8.5,6.8
			c1.5,1.4,3.3,4.5,5.8,19l2,11.3c2.8,16,2.4,20.4,1.3,22.2c-1.4,2.5-5.2,3.8-4.6,7.4c1.3,7.3,15.7,4.9,20.5,4
			c25-4.4,25.1-9.7,24.5-13.2c-0.6-3.5-3.5-3.6-6.6-4.8c-2.5-1-3.8-0.3-7.4-20.6l-2-11.3c-1.4-8-3.1-18.3-1.4-21.2
			C365.8,223.7,370.2,223.1,369.5,219z"/>
		<path class="st0" d="M445.2,231.7c-2.1,0.4-6.3-2.3-7.9-3.2l-31.2-19c-5.9-3.7-7.3-3.9-14.4-2.6c-5.1,0.9-20.6,3.2-19.2,11.3
			c1.2,6.8,8.6,0.9,12.5,12c2.7,8,4.2,16.3,5.6,24.5c0.9,5.1,1.9,12.4,2,17.4c0.1,7.5-6.9,6.3-5.8,12.3c1.3,7.4,13.2,6,18.4,5.1
			c5.4-1,17-3.7,15.7-11.4c-1-5.6-6.6-1.8-9.6-8.8c-1.2-2.8-2.1-7-2.6-10.2c-0.4-2.4-1.6-9.8,1.9-10.5c2.4-0.4,5.8,1.8,7.7,3
			l40.8,25.4c1,0.6,2.1,1.2,3.2,1.5l5.2-29.3l-3.9-22c-0.8-4.3-2-11.4-1.2-15.8c1-5.6,7.5-4.3,6.3-10.8c-1.4-7.9-13.7-5.1-18.8-4.2
			c-4.8,0.9-16.5,2.6-15.2,9.9c1.1,6.2,6.8,3.4,9.3,7.9c1.4,2.5,2.4,7.3,2.9,10.2C447.4,226.5,448.1,231.2,445.2,231.7z"/>
		
			<rect x="533" y="274" transform="matrix(0.1736 -0.9848 0.9848 0.1736 164.7725 817.7244)" class="st0" width="73.4" height="73.4"/>
		
			<rect x="626" y="290.4" transform="matrix(0.1737 -0.9848 0.9848 0.1737 225.442 922.8661)" class="st0" width="73.4" height="73.4"/>
		
			<rect x="719" y="306.8" transform="matrix(0.1737 -0.9848 0.9848 0.1737 286.183 1028.0601)" class="st0" width="73.4" height="73.4"/>
		
			<rect x="812.1" y="323.2" transform="matrix(0.1738 -0.9848 0.9848 0.1738 346.8793 1133.2385)" class="st0" width="73.4" height="73.4"/>
		
			<rect x="905.1" y="339.6" transform="matrix(0.1736 -0.9848 0.9848 0.1736 407.7078 1238.4932)" class="st0" width="73.4" height="73.4"/>
		
			<rect x="516.5" y="367" transform="matrix(0.1736 -0.9848 0.9848 0.1736 59.5704 878.455)" class="st0" width="73.4" height="73.4"/>
		<polygon class="st0" points="603.8,449.9 676,462.6 688.8,390.4 616.5,377.6 		"/>
		
			<rect x="702.6" y="399.8" transform="matrix(0.1735 -0.9848 0.9848 0.1735 181.1122 1088.8927)" class="st0" width="73.4" height="73.4"/>
		
			<rect x="795.7" y="416.3" transform="matrix(0.1736 -0.9848 0.9848 0.1736 241.7853 1194.0333)" class="st0" width="73.4" height="73.4"/>
		
			<rect x="888.7" y="432.7" transform="matrix(0.1736 -0.9848 0.9848 0.1736 302.5156 1299.2275)" class="st0" width="73.4" height="73.4"/>
		
			<rect x="500.1" y="460.1" transform="matrix(0.1736 -0.9848 0.9848 0.1736 -45.5797 939.2407)" class="st0" width="73.4" height="73.4"/>
		
			<rect x="593.2" y="476.5" transform="matrix(0.1736 -0.9848 0.9848 0.1736 15.1155 1044.3857)" class="st0" width="73.4" height="73.4"/>
		
			<rect x="779.3" y="509.3" transform="matrix(0.1737 -0.9848 0.9848 0.1737 136.5774 1254.7524)" class="st0" width="73.4" height="73.4"/>
		
			<rect x="872.3" y="525.7" transform="matrix(0.1736 -0.9848 0.9848 0.1736 197.3291 1359.9689)" class="st0" width="73.4" height="73.4"/>
		<polygon class="st0" points="562.9,560.1 490.7,547.3 477.9,619.6 550.2,632.3 		"/>
		<polygon class="st0" points="656,576.5 583.7,563.7 571,636 643.2,648.7 		"/>
		<polygon class="st0" points="749,592.9 676.8,580.1 664,652.4 736.3,665.1 		"/>
		<path class="st0" d="M837.1,637.3l4.9-28l-72.3-12.7l-12.7,72.3l6.5,1.1C785.6,654.9,810.4,643.7,837.1,637.3z"/>
		<path class="st0" d="M933.3,635.8l1.8-10.1l-72.3-12.7l-3.6,20.3c9.5-1.3,19.2-2,29.1-2C903.8,631.2,918.8,632.8,933.3,635.8z"/>
		<path class="st0" d="M468.4,673.3c12.8,9.3,24.7,19.9,35.3,31.7c11.6-6.7,23.8-12.3,36.6-16.8l6.2-35.2l-72.3-12.7L468.4,673.3z"
			/>
		<path class="st0" d="M638.2,677.2l1.4-7.7l-72.3-12.7l-4.4,25c16.3-3.8,33.2-6,50.7-6C621.9,675.7,630.1,676.3,638.2,677.2z"/>
		<path class="st0" d="M730.6,697.6l2.1-11.6l-72.3-12.7l-1.3,7.3c23,4.8,44.7,13.2,64.4,24.6C725.8,702.5,728.2,700,730.6,697.6z"
			/>
		<path class="st0" d="M570.3,216.3c-4,18.8-10.2,10.3-11.4,17.4c-0.7,4,2.9,6.8,6.5,7.4c4,0.7,7.9,1.3,11.8,1.7
			c3.9,0.6,7.9,1.2,11.8,1.8c3.5,0.6,6.9,1.4,10.3,2.1c3.4,0.8,6.9,1.6,10.8,2.3c22.9,4,33.1-8.6,35.1-20.1
			c1.7-9.6-5.3-17.1-9.7-19.7c-1-0.8-2.2-1.4-2-2.9c0.3-1.5,1.4-2,2.6-2.7c4.7-2.6,7.8-7.8,8.8-13c1.6-8.8-2.1-19.7-22.9-23.4
			c-2.6-0.5-5.4-0.7-8.1-1.1c-2.7-0.2-5.3-0.5-8.1-0.9c-4.2-0.8-8.4-1.7-12.6-2.7c-4.2-0.9-8.4-1.8-12.6-2.6
			c-3.5-0.6-8.6,0.6-9.3,4.9c-1.4,7.9,9.8,1.7,6.1,18.8L570.3,216.3z M603.8,192.7l1.6-9.2c0.6-3.3,0.7-6.8,5-6.1
			c6.3,1.1,6.9,7.8,6,12.9c-1.1,6.3-3.5,10.8-10.4,9.6C602.4,199.3,603,197.1,603.8,192.7z M598.8,220.5l1-5.7
			c0.5-2.4,1.7-4.1,5.2-3.4c8,1.4,9,7.9,7.7,14.9c-1,5.9-4.1,10-10.6,8.8C598.6,234.5,596.5,233.8,598.8,220.5z"/>
		<path class="st0" d="M659.5,221.7c-2.8,16-4.7,20-6.4,21.4c-2.2,1.8-6.2,1.7-6.8,5.4c-1.3,7.3,13.1,9.9,17.9,10.8
			c25,4.4,26.9-0.5,27.5-4c0.6-3.5-2-4.6-4.6-6.8c-2-1.8-3.5-1.6,0.1-21.9l2-11.3c1.4-8,3.3-18.2,5.9-20.4c3.1-2.5,7.4-1.5,8.2-5.6
			c1.4-7.8-12.6-10.5-19.5-11.7c-2.3-0.4-25.6-4.5-27,3.7c-0.8,4.3,3.6,5.5,5.7,9.2c1,1.8,1.5,5.3-1,19.8L659.5,221.7z"/>
		<path class="st0" d="M707,247.1c-2.4,7.1-8.6,3.5-9.7,9.6c-1.3,7.4,10.3,10.2,15.6,11.1c5.4,0.9,17.2,2.3,18.6-5.3
			c1-5.6-5.5-3.9-6-11.5c-0.2-3.1,0.5-7.3,1-10.5c0.4-2.4,1.8-9.8,5.4-9.2c2.4,0.4,4.9,3.7,6.2,5.4l29.7,37.9
			c1.5,1.8,3.1,3.5,5.4,3.9c7.6,1.3,9.7-14.4,10.6-19.5l5.2-29.6c0.8-4.3,2-11.4,4.2-15.3c2.9-4.9,8.5-1.5,9.6-8
			c1.4-7.9-11.2-9.5-16.2-10.4c-4.8-0.8-16.4-3.2-17.7,4.1c-1.1,6.2,5.3,5.5,6,10.6c0.5,2.8-0.3,7.7-0.8,10.6
			c-0.3,1.9-1.3,6.6-4.1,6.1c-2.1-0.4-5.1-4.3-6.3-5.7L741,192.9c-4.3-5.5-5.5-6.1-12.6-7.4c-5.1-0.9-20.5-4.1-21.9,4
			c-1.2,6.9,7.8,3.8,7.6,15.6c-0.2,8.4-1.7,16.8-3.1,25C710.2,235.2,708.7,242.4,707,247.1z"/>
		<path class="st0" d="M852.1,221.6c15.5,2.7,12.7,18.6,24,20.6c6.2,1.1,10-4.1,11-9.7c1-5.8-1.1-18.2-8.2-19.5
			c-2.1-0.4-5.3,0.8-7.4,0.5c-3-0.5-7.9-4.6-18-6.3c-24.4-4.3-47.9,9.2-52.1,33.3c-4.4,25.2,13.7,45.7,37.9,50
			c16.2,2.9,33.7-2.3,41.1-18.2c1.3-2.8,1.7-3.4,4.7-3.2c2.8,0,5.7-1.6,6.2-4.6c0.6-3.3,0.4-9.6-21.1-13.4c-5.8-1-23.2-3.5-24.6,4.8
			c-1.8,10.5,11.8,3.4,10.1,12.8c-0.7,4.1-4.2,6.5-8.2,5.8c-7.3-1.3-19.5-12.2-15.4-35.7C834.4,227,842.2,219.9,852.1,221.6z"/>
		<path class="st0" d="M948.1,223.9c-24.9-4.4-47.2,9.3-51.5,33.5c-4.3,24.3,11.3,45.2,35.4,49.4c23.3,4.1,47.8-8.3,52.2-32.8
			C986.8,259.3,979.6,229.4,948.1,223.9z M952.9,280.4c-1.1,6.2-5.1,11.7-12.1,10.5c-12.3-2.2-14.4-30.7-12.7-40.4
			c1-5.6,5.3-11.6,11.7-10.5C953.2,242.3,954.7,270,952.9,280.4z"/>
		<path class="st0" d="M450.1,661.3l92.4-524.2c0.7-4,4.2-6.9,8.2-6.9c0.5,0,1,0,1.5,0.1l467.6,82.5c4.5,0.8,7.6,5.1,6.8,9.7
			l-73.8,418.4c11.1,3.4,21.9,7.6,32.2,12.7l75-425.1c4.1-23-11.3-44.9-34.3-49L558.1,96.9c-2.4-0.4-4.9-0.6-7.4-0.6
			c-20.5,0-38,14.7-41.6,35l-90.8,514.8C429.4,650.3,440,655.4,450.1,661.3z"/>
		<path class="st0" d="M765.4,499.8l-72.3-12.7l-12.7,72.3l72.3,12.7L765.4,499.8z M734.5,556.3l-14.3-10.9l-17.1,5.6l6-16.9
			l-10.6-14.5l18,0.4l10.5-14.5l5.1,17.2l17.1,5.5l-14.8,10.2L734.5,556.3z"/>
	</g>
	<g>
		<g>
			<path class="st0" d="M650.2,835.1c-11.8-0.1-23.6-0.2-35.2-0.1c-11.6,0.1-23.4,0.1-35.2,0.1c-1.5,0-3,0.2-4.3,0.6
				c-3.3,1.1-5.6,2.9-6.9,5.4c-1.3,2.5-1.8,5-1.4,7.5c0.4,2.6,1.6,4.8,3.6,6.7c2,1.9,4.7,2.8,8.1,2.8h46.4
				c-8.3,11.8-15,24.5-20.2,38.1c-5.2,13.6-8.9,27.5-11.3,41.7c-0.4,2.4-0.8,5.1-1.2,8c-0.4,3,0.2,5.6,1.8,8c1.4,2.1,3,3.6,5,4.4
				c1.9,0.8,3.9,1.1,5.8,0.8c1.9-0.3,3.8-1.1,5.6-2.5c1.8-1.3,3.1-3.1,4-5.4l0.6-1.1c1.5-12.5,4.2-24.4,8.1-35.8
				c3.9-11.4,8.9-22.5,15.1-33.5c1.9-3.3,3.8-6.5,5.8-9.7c2-3.2,4.2-6.3,6.4-9.3c2.1-2.6,4.3-5.2,6.4-7.7c2.1-2.5,3.1-5.7,2.8-9.4
				c-0.3-2.1-1.4-4.3-3.4-6.4C654.6,836.2,652.5,835.1,650.2,835.1z"/>
			<path class="st0" d="M613.6,698c-110,0-199.2,89.2-199.2,199.2c0,110,89.2,199.2,199.2,199.2c110,0,199.2-89.2,199.2-199.2
				C812.8,787.1,723.6,698,613.6,698z M613.6,1038.8c-78.2,0-141.6-63.4-141.6-141.7c0-78.2,63.4-141.6,141.6-141.6
				c78.2,0,141.6,63.4,141.6,141.6C755.2,975.4,691.8,1038.8,613.6,1038.8z"/>
			<path class="st0" d="M613.6,772.9c-68.6,0-124.2,55.6-124.2,124.2c0,68.6,55.6,124.2,124.2,124.2c68.6,0,124.2-55.6,124.2-124.2
				C737.8,828.6,682.2,772.9,613.6,772.9z M613.6,1005.4c-59.8,0-108.3-48.5-108.3-108.3c0-59.8,48.5-108.3,108.3-108.3
				c59.8,0,108.3,48.5,108.3,108.3C721.9,956.9,673.4,1005.4,613.6,1005.4z"/>
		</g>
		<g>
			<path class="st0" d="M263.3,892.1c-2.5,2.3-4.1,4.9-4.6,7.7c-0.6,2.8-0.1,5.4,1.3,7.8c1.4,2.4,4.1,3.6,8,3.6
				c5.7,0.1,11.7,0.2,18.1,0.3c6.4,0.1,12.6-0.4,18.7-1.4c3.1-0.5,5.2-1.8,6.1-3.9c0.9-2.1,1.1-4.3,0.4-6.6c-0.7-2.3-2-4.6-3.9-6.7
				c-1.9-2.1-4.1-3.6-6.6-4.3H296c0-15,0-29.9,0.1-44.8c0.1-14.9,0-29.9-0.1-45c0-1.1-0.4-2.4-1.2-3.8c-0.8-1.4-1.7-2.4-2.7-3.2
				c-2.5-2.1-5.5-3-9-2.6c-3.5,0.4-6.8,1.5-10.1,3.4c-3.3,1.9-6.1,4.3-8.6,7.2c-2.5,2.9-3.9,5.7-4.2,8.5c-0.3,1.6,0,3.2,0.7,4.8
				c0.7,1.6,1.7,2.9,2.9,4.1c1.2,1.1,2.7,2,4.3,2.5c1.6,0.6,3.3,0.7,4.9,0.3v68.7C269,888.6,265.8,889.8,263.3,892.1z"/>
			<path class="st0" d="M395.7,836.6c-2.1-1.2-4.3-1.7-6.7-1.6c-2.4,0.1-4.6,0.9-6.7,2.4c-2.1,1.4-3.4,3.5-4.1,6.1
				c-0.8,3.1-1.1,6.4-0.9,9.7c0.1,3.3,0.1,6.7,0,10.1c-2.9,0-5.8,0-8.6,0c-2.8,0-5.8-0.1-9-0.4c2.5-4.2,5-8.3,7.4-12.5
				c2.4-4.1,4.8-8.4,7.2-12.6c1.8-3,3.5-6,5.3-9.1c1.8-3,3.5-6.1,5.3-9.2c0.4-0.6,1.1-1.7,2.1-3.1c1-1.4,2-3.1,3-4.9
				c1-1.8,1.9-3.7,2.6-5.6c0.8-1.9,1.1-3.6,0.9-5.1c-0.3-2.5-1.1-4.6-2.5-6.3c-1.4-1.7-3-2.9-4.9-3.7c-1.9-0.7-3.9-0.9-6-0.6
				c-2.1,0.4-4.2,1.4-6,3.2c-1.5,1.5-3,3.3-4.3,5.4c-1.4,2.1-2.7,4.2-3.9,6.5c-1.2,2.3-2.4,4.5-3.5,6.8c-1.1,2.3-2.2,4.3-3.2,6
				c-3.3,5.8-6.6,11.5-10.1,17.3c-3.5,5.7-6.8,11.5-10.1,17.4c-0.9,1.6-2.1,3.6-3.8,5.9c-1.6,2.3-3.1,4.6-4.2,7.2
				c-1.2,2.5-2,5.1-2.3,7.6c-0.3,2.6,0.3,5.1,2,7.4c1,1.4,2.2,2.4,3.6,3.1c1.4,0.7,2.9,1.2,4.4,1.5c1.6,0.3,3.2,0.5,4.8,0.5
				c1.6,0,3.2,0,4.7,0c4.8,0.1,9.7,0.2,14.7,0.3c5,0.1,9.9,0.1,14.7,0.1c0.1,1.6,0.1,3.5,0,5.7c-0.1,2.1-0.2,4.4-0.1,6.7
				c0.1,2.3,0.3,4.6,0.7,6.7c0.4,2.1,1.1,4,2.1,5.7c1.6,2.5,3.6,4.1,5.8,4.6c2.2,0.6,4.3,0.4,6.4-0.6c0.2-0.1,0.3-0.2,0.5-0.3
				c-0.5-5.9-0.8-11.8-0.8-17.8c0-19.3,2.5-38,7.1-55.8C398.5,839.2,397.4,837.6,395.7,836.6z"/>
			<path class="st0" d="M338.8,994.3c-78.2,0-141.6-63.4-141.6-141.6c0-78.2,63.4-141.6,141.6-141.6c41.1,0,78,17.6,103.9,45.6
				c12.3-14.9,26.5-28.1,42.1-39.3c-36.4-39.2-88.3-63.8-146-63.8c-110,0-199.2,89.2-199.2,199.2c0,110,89.2,199.2,199.2,199.2
				c34.7,0,67.4-8.9,95.8-24.5c-11.3-15.5-20.6-32.4-27.6-50.5C386.8,987.9,363.6,994.3,338.8,994.3z"/>
			<path class="st0" d="M423,784.6c2.8-4.8,5.8-9.4,9-13.9c-22.8-25.9-56-42.3-93.2-42.3c-68.6,0-124.2,55.6-124.2,124.2
				c0,68.6,55.6,124.2,124.2,124.2c22.8,0,44.1-6.2,62.5-17c-1.6-5.3-2.9-10.6-4.1-16.1c-16.9,10.8-36.8,17.2-58.4,17.2
				c-59.8,0-108.3-48.5-108.3-108.3c0-59.8,48.5-108.3,108.3-108.3C372.9,744.3,403.2,760.1,423,784.6z"/>
		</g>
		<g>
			<path class="st0" d="M885.5,872.7c3.1-2.3,6.3-4.3,9.6-6.2c3.3-1.9,6.4-3.8,9.2-5.9c4.5-3.3,8.2-7,11-11.3
				c2.8-4.3,4.8-8.8,5.9-13.6c1.1-4.8,1.3-9.7,0.6-14.7c-0.8-5-2.5-10-5.1-14.9c-2.8-5.2-6.3-9-10.5-11.4c-4.2-2.5-8.7-3.8-13.6-4.1
				c-4.8-0.3-9.7,0.4-14.6,2c-4.9,1.6-9.4,3.9-13.6,6.9c-1.8,1.3-3.9,2.9-6.5,4.9c-2.6,2-4.8,4.2-6.7,6.7c-1.9,2.4-3.1,5.1-3.7,7.8
				c-0.6,2.8,0.2,5.5,2.4,8.1c2.5,3.2,5.1,4.7,7.6,4.7c2.6,0,5.1-0.8,7.6-2.3c2.5-1.5,4.9-3.4,7.3-5.7c2.3-2.3,4.5-4,6.5-5.3
				c4.1-2.8,7.9-4.1,11.1-3.9c3.3,0.2,6,2.5,8.1,6.9c1.6,3,1.9,5.9,0.9,8.8c-1.1,2.8-2.8,5.4-5.2,7.8c-2.4,2.4-5,4.5-7.9,6.4
				c-2.9,1.9-5.3,3.4-7.4,4.5c-4.4,2.6-8.3,5.4-11.6,8.2c-3.3,2.8-6.2,5.9-8.6,9.3c-2.4,3.4-4.3,7.2-5.8,11.3
				c-1.5,4.2-2.6,8.8-3.4,14c-0.3,2.1-0.6,4.3-1,6.4c-0.4,2.1-0.4,4.3,0.1,6.4c0.6,2.8,2,5.1,4.2,7c2.1,1.9,4.6,2.8,7.5,2.8h44.9
				c4.8,0,8.9-1.2,12.5-3.6c3.5-2.4,6.7-5.4,9.6-8.9c1.5-1.8,2.3-3.7,2.4-5.9c0.1-2.2-0.3-4.3-1.2-6.1c-0.9-1.9-2.2-3.5-3.9-4.8
				c-1.7-1.3-3.6-2.1-5.8-2.2c-3-0.3-5.4,0.4-7.1,2c-1.4,1.3-2.9,2.8-4.4,4.3c0.1,0,0.1,0,0.2-0.1c-0.5,0.5-0.9,0.8-1.1,0.9
				c0.3-0.3,0.6-0.6,0.9-0.9c-2.7,0.8-5.8,1.4-9.1,1.6c-3.5,0.3-6.8,0.3-10,0.2c-3.2-0.1-6.2-0.3-8.9-0.6c-2.7-0.3-4.7-0.4-6.1-0.4
				c0.8-3.9,2.3-7.2,4.6-10C879.7,877.5,882.4,875,885.5,872.7z"/>
			<path class="st0" d="M888.4,653.5c-57.7,0-109.6,24.6-146,63.8c15.7,11.3,29.9,24.5,42.1,39.3c25.9-28,62.8-45.6,103.9-45.6
				c78.2,0,141.6,63.4,141.6,141.6c0,78.2-63.4,141.6-141.6,141.6c-24.7,0-48-6.4-68.2-17.5c-7,18.1-16.3,35.1-27.6,50.5
				c28.4,15.6,61.1,24.5,95.8,24.5c110,0,199.2-89.2,199.2-199.2C1087.5,742.6,998.3,653.5,888.4,653.5z"/>
			<path class="st0" d="M825.9,959.8c18.4,10.7,39.7,17,62.5,17c68.6,0,124.2-55.6,124.2-124.2c0-68.6-55.6-124.2-124.2-124.2
				c-37.2,0-70.4,16.4-93.2,42.3c3.2,4.5,6.2,9.2,9,13.9c19.9-24.5,50.2-40.3,84.2-40.3c59.8,0,108.3,48.5,108.3,108.3
				c0,59.8-48.5,108.3-108.3,108.3c-21.5,0-41.5-6.3-58.3-17.2C828.8,949.2,827.4,954.5,825.9,959.8z"/>
		</g>
	</g>
</g>
</svg>
