<svg id="Layer_1" data-name="Layer 1" xmlns="http://www.w3.org/2000/svg" viewBox="0 0 254.81 278.42"><defs><style>.cls-1{fill:#fff;}</style></defs><title>card_icons</title><path class="cls-1" d="M219.26,288.42s58.13-38.79,58.13-76.44a34,34,0,0,0-58.13-23.87A34,34,0,0,0,161.13,212C161.13,249.64,219.26,288.42,219.26,288.42Z" transform="translate(-22.58 -10)"/><polygon class="cls-1" points="249.64 66.17 196.68 0 143.72 66.17 196.68 132.34 249.64 66.17"/><path class="cls-1" d="M56.12,125.27a33.34,33.34,0,0,0,19.64-6.39,38,38,0,0,1-10,23.46H94.22a38,38,0,0,1-10.05-23.46,33.49,33.49,0,0,0,53.18-27.14c0-21.33-14.25-30.37-44.71-60.83C81.59,19.87,80,13.4,80,13.4S78.33,19.87,67.3,30.91C36.83,61.37,22.58,70.41,22.58,91.74A33.54,33.54,0,0,0,56.12,125.27Z" transform="translate(-22.58 -10)"/><path class="cls-1" d="M107.08,271.36a28.85,28.85,0,1,0,0-57.69c-1.1,0-2.19.07-3.26.17a36.62,36.62,0,0,0,2.34-4.36c.17-.36.34-.72.49-1.1s.3-.8.44-1.2a28.85,28.85,0,1,0-54.26,0c.14.4.28.79.44,1.2s.33.73.49,1.1a36.66,36.66,0,0,0,2.34,4.36c-1.07-.1-2.16-.17-3.26-.17a28.85,28.85,0,0,0,0,57.69,33.32,33.32,0,0,0,23-9.18c0,.13,0,.26,0,.39a38,38,0,0,1-10.17,25.86H94.22a38,38,0,0,1-10.17-25.86c0-.13,0-.26,0-.39A33.32,33.32,0,0,0,107.08,271.36Z" transform="translate(-22.58 -10)"/></svg>