<svg id="Ebene_1" data-name="Ebene 1" xmlns="http://www.w3.org/2000/svg" xmlns:xlink="http://www.w3.org/1999/xlink" viewBox="0 0 1325.57 848.23"><defs><style>.cls-1,.cls-2{fill:none;}.cls-2{clip-path:url(#clip-path);}.cls-3{clip-path:url(#clip-path-2);}.cls-4{fill:#fff;}</style><clipPath id="clip-path"><rect class="cls-1" width="1325" height="849"/></clipPath><clipPath id="clip-path-2" transform="translate(0 -0.77)"><path class="cls-2" d="M0,849H1325V0H0V849Zm0,0"/></clipPath></defs><title>horse_racing</title><g class="cls-3"><path class="cls-4" d="M965.45.77a119.56,119.56,0,0,0-16.3,1.37c-38.86,5.71-37.72,56-37.72,56S844,54.72,809.73,54.72,706.88,63.86,698.88,69.57s-8,19.42-8,19.42-27.43,13.72-32,25.15S647.43,153,679.43,174.72s123.45,36.57,123.45,36.57V217c0,4.57-35.45,42.3-35.45,42.3s-3.42,0-22.85-9.15-62.85-40-80-48-27.42,2.27-26.27,10.27,38.85,42.3,38.85,42.3S522.86,250.14,468,257s-109.7,59.42-109.7,59.42c1.71,1.14-30.86,10.29-67.43,24s-65.15,46.87-77.15,61.73-22.85,35.43-22.85,35.43-37.15-6.86-49.15-7.43A53.84,53.84,0,0,0,121.15,433s13.13,2.29,26.28,13.72S154.88,469,154.88,469c-32.95-9.15-45.62-19.89-71.43-40.57l6.28,19.41-10.85-3.43C68,441,56,429.57,46.3,425c-17.22-12.27-22.14-18.13-17.73-40.58,0,0-4,4-9.7,9.15C9,403.51,6.32,426.34,19.5,438.9c-7.73,1-14.71,1.5-19.5,8.4,0,0,16.57,3.41,28.57,9.7s45.15,41.15,45.15,41.15l-27.43-4s1.7,8.57,26.27,19.43,70.85-.57,70.85-.57-1.7,6.87-10.28,10.3S108,529.57,108,529.57s2.86,2.28,16,7.42,42.29-1.72,52-4.58A17.67,17.67,0,0,0,188,521a141.27,141.27,0,0,0,44.57-1.15c24-4.57,40-36,40-36l5.73,26.3s6.86-13.73,16.57-17.73,32.57-21.13,39.43-41.7,1.13-41.15,1.13-53.15-2.28-41.73-2.28-41.73l19.43-5.7L351.43,393c-1.14,42.86,13.73,69.71,26.88,84s53.7,36.57,54.27,40.57,4.57,10.29.57,21.15-17.14,21.12-44,45.12-36,36-13.72,56S460.57,725.58,484,750.15s21.15,28.56,17.73,30.27-10.3,2.3-18.3,1.73-22.27-4-21.7,2.27-.81,33.14-1.15,52c-.23,13.2.58,12.58,13.73,12.58a55.18,55.18,0,0,0,38.27-14.85c16.23-16.44,19.84-28.43,20.1-46,.32-21.79-3.78-44.73-15-60.28-14.85-17.14-81.66-85.13-78.23-94.27S484,589,484,589s-3.41,26.28-13.12,42.85-4,23.44,22.85,37.15,69.7,42.85,69.7,42.85-24,20-12.55,22.3,41.7,20.57,46.27,20.57,10.28,1.72,18.28,4S640.57,773,640.57,773c-12.51.66-12.82,7.42-8.16,16.66l13.89,36s22.28-6.89,30.85-11.46,8-13.14,9.15-24,2.27-12.57,2.27-12.57,38.3-1.73,57.73-1.73,34.29.57,44.57-7.43,19.51-22.87,19.51-22.87,6.29,1.16,33.15,6.3,31.43,7.43,44.57,4,75.32-30.28,99.89-40,20.59-14.84,22.88-29.7,8-15.43-4-28.57-56-68-56-68S948,582.14,947.43,577s8.58-5.71,37.72-34.85,26.58-93.43,29.73-96.57,15.12-22,30.55-37.43c10-10,32.26-51.8,50.35-82.4,42.82,7.22,91.28,8.36,128.8-16.65a14.15,14.15,0,0,0,3.15,1.9c9.71,4.29,19.42-3.42,19.42-3.42a107.14,107.14,0,0,1,11.73,5.72c6,3.43,14.27,14.27,25.7,15.7,15.82-.17,34.27-17.09,39.68-31.69,4-11.14-1.58-26-10.72-31.74s-17.1-16.14-29.54-26.85c-12.89-11.1-30.29-27.43-42-42s-14.86-21.14-31.43-37.43-41.43-22-41.43-22a46.43,46.43,0,0,0,4.58-17.72c.57-10.28,0-25.72-.58-35.15s-2.57-8-10,5.15a81.25,81.25,0,0,1-16.27,20.57L1131.43,91c-7.14-8.86-10.28-13.15-10.85-2.58s-2,37.44-2,43.15-1.7,8.85-1.7,8.85c-4.34-2-10.79-8.62-21.07-5.61-18.35,5.38-40.65,29.23-62.37,47.66-20.49,17.39-40.59,29.14-52.28,42.52,0,0-38.85-9.15-51.42-12.58s-13.72-10.27-16-26.27,1.13-19.44,5.7-33.15,11.44-30.85,14.88-30.85,29.71,9.15,35.43,9.15,8.84-4.35,12.83-12.57,6.86-11,6.86-11,11.15,6.39,11.15-.47V87.85a53.4,53.4,0,0,1,21.73-4.55c12.57,0,12.57-9.15,8-9.15s-10.3-4.57-10.3-4.57-2.28-21.72-11.43-41.15C1000.86,12,991.52.54,965.45.77Zm183.43,281.37s16.56,2.56,32.85,4.85,34.85-3.7,34.85-3.7l6.75,4.58c-34.86,23.8-74,26.63-115.55,18.47,4.6-6.91,8.46-11.88,11.1-13.62,13.43-8.85,30-10.57,30-10.57ZM594.38,479.37c.39.44,41.94,46.89,109.05,70.77,67.43,24,98.3,30.27,98.3,30.27s-2.3,30.29-6.3,47.43-10.33,35.12-16,52.26-8.51,40.91-12.51,51.19-68,11.42-85.73,10.28-18.27-1.15-18.27-1.15S625.14,702.14,587.43,681s-38.85-21.15-38.85-21.15,1.15-51.43,1.15-59.43,22.86-26.85,32.57-60c9.41-32.1,12.9-59.37,12.07-61ZM880.57,617s31.43,20.57,56,35.42,33.14,20.59,26.85,26.87-25.13,20.55-41.7,28.55S868,724.44,861.15,723.29s-8.56-5.14-10.27-12-15.45-21.72-15.45-21.72L880.57,617Zm0,0" transform="translate(0 -0.77)"/></g></svg>