<svg id="Layer_1" data-name="Layer 1" xmlns="http://www.w3.org/2000/svg" viewBox="0 0 263 239.39"><defs><style>.cls-1{fill:#fff;}</style></defs><title>live_casino</title><polygon class="cls-1" points="108.88 45.37 132.51 28.87 156.14 45.37 156.14 8.04 132.51 24.54 108.88 8.04 108.88 45.37"/><path class="cls-1" d="M17,189.83,24.69,263s58.53,11.69,123.37,11.78h.88C213.78,274.7,272.31,263,272.31,263L280,189.83S260,170,255.38,134.64s15.39-86.83,15.39-86.83l-66.67-12.4L149.73,145.18s-.45.88-1.23,2.46c-.78-1.59-1.23-2.46-1.23-2.46L92.91,35.41,26.23,47.81s20,51.47,15.39,86.83S17,189.83,17,189.83Zm163-30.18h56.07v24.81H180Zm-49.92,14.06c5.85,0,10.6,5.74,10.6,12.81s-4.75,12.82-10.6,12.82-10.6-5.74-10.6-12.82S124.23,173.71,130.08,173.71Zm0,51.68c5.85,0,10.6,5.74,10.6,12.81S135.94,251,130.08,251s-10.6-5.74-10.6-12.82S124.23,225.39,130.08,225.39Z" transform="translate(-17 -35.41)"/></svg>