<?xml version="1.0" encoding="utf-8"?>
<svg version="1.1" id="Layer_1" x="0px" y="0px" viewBox="0 0 942 137" style="enable-background:new 0 0 942 137;" xmlns="http://www.w3.org/2000/svg">
  <style type="text/css">
	.st0{opacity:0.918;fill-rule:evenodd;clip-rule:evenodd;fill:#151000;enable-background:new    ;}
	.st1{opacity:0.916;fill-rule:evenodd;clip-rule:evenodd;fill:#151000;enable-background:new    ;}
	.st2{opacity:0.949;fill-rule:evenodd;clip-rule:evenodd;fill:#151000;enable-background:new    ;}
	.st3{opacity:0.917;fill-rule:evenodd;clip-rule:evenodd;fill:#151000;enable-background:new    ;}
	.st4{opacity:0.951;fill-rule:evenodd;clip-rule:evenodd;fill:#151000;enable-background:new    ;}
	.st5{opacity:0.916;fill-rule:evenodd;clip-rule:evenodd;fill:#F8C282;enable-background:new    ;}
	.st6{opacity:0.912;fill-rule:evenodd;clip-rule:evenodd;fill:#EAACCC;enable-background:new    ;}
	.st7{opacity:0.912;fill-rule:evenodd;clip-rule:evenodd;fill:#151000;enable-background:new    ;}
	.st8{opacity:0.913;fill-rule:evenodd;clip-rule:evenodd;fill:#151000;enable-background:new    ;}
	.st9{opacity:0.961;fill-rule:evenodd;clip-rule:evenodd;fill:#B2BBDF;enable-background:new    ;}
	.st10{opacity:0.962;fill-rule:evenodd;clip-rule:evenodd;fill:#151000;enable-background:new    ;}
	.st11{opacity:0.963;fill-rule:evenodd;clip-rule:evenodd;fill:#151000;enable-background:new    ;}
</style>
  <g>
    <path class="st0" d="M334.8,0.5c36,0,72,0,107.9,0c5.6,2.9,7.5,7.5,5.5,13.8c-1.8,2.7-4.3,4.2-7.5,4.4c-31.3,0.5-62.6,0.7-94,0.5 c0,13.5,0,26.9,0,40.4c31.7-0.2,63.3,0,94.9,0.5c6.6,2.2,8.8,6.6,6.5,13.3c-1.5,1.9-3.4,3.3-5.5,4.4c-32,0.5-64,0.7-95.9,0.5 c0.2,16.4,0,32.8-0.5,49.3c-0.6,4-2.8,6.7-6.5,7.9c-2,0-4,0-6,0c-2.7-1.5-4.6-3.8-5.5-6.9c-0.7-40.1-0.7-80.1,0-120.2 C329.6,5,331.8,2.4,334.8,0.5z" style="fill: rgb(12, 173, 241);"/>
  </g>
  <g>
    <path class="st1" d="M485.7,0.5c40.6,0,81.3,0,121.9,0c7.4,5.4,7.7,11.1,1,17.2c-20.6,1.1-41.3,1.6-62,1.5 c-20.7,0.1-41.4-0.4-62-1.5c-5.1-3.3-6.3-7.7-3.5-13.3C482.6,2.9,484.1,1.6,485.7,0.5z" style="fill: rgb(12, 173, 241);"/>
  </g>
  <g>
    <path class="st2" d="M649.7,0.5c40.6,0,81.3,0,121.9,0c5.9,3.5,7.4,8.5,4.5,14.8c-0.9,1.2-2.1,2-3.5,2.5c-17.6,1.4-35.3,1.9-53,1.5 c0.2,37.1,0,74.2-0.5,111.3c-1.8,2.3-4,3.9-6.5,4.9c-1,0-2,0-3,0c-3.3-0.9-5.8-2.9-7.5-5.9c-0.5-37.1-0.7-74.2-0.5-111.3 c-17.7,0.2-35.3,0-53-0.5C641.9,11.7,642.3,5.9,649.7,0.5z" style="fill: rgb(12, 173, 241);"/>
  </g>
  <g>
    <path class="st3" d="M814.6,0.5c40.3,0,80.6,0,120.9,0c2.6,0.9,4.6,2.5,6,4.9c0,3,0,5.9,0,8.9c-2.1,2.5-4.7,4-8,4.4 c-39,0.7-78,0.7-116.9,0c-7.9-2.5-10.1-7.6-6.5-15.3C811.7,2.6,813.2,1.6,814.6,0.5z" style="fill: rgb(12, 173, 241);"/>
  </g>
  <g>
    <path class="st4" d="M124.9,135.5c-2,0-4,0-6,0c-2.3-1.5-4.1-3.4-5.5-5.9c-0.3-27.3-0.7-54.5-1-81.8c-12.7,23.6-25.3,47.3-38,70.9 c-2.1,3.3-5.1,4.6-9,3.9c-3.5,0.4-6.5-0.6-9-3c-12.7-23.6-25.3-47.3-38-70.9c-0.3,26.6-0.7,53.2-1,79.8c-1,3.5-3.2,5.8-6.5,6.9 c-1.7,0-3.3,0-5,0c-2.4-1.2-4.4-2.8-6-4.9C0,88.9,0,47.2,0,5.5c4.6-4.4,9.7-5.1,15.5-2c16.1,31.2,32.8,62,50,92.6 c16.7-30.9,33.3-61.7,50-92.6c4.9-2.8,9.6-2.5,14,1c1.7,41.9,2,84,1,126.1C129.1,132.8,127.2,134.4,124.9,135.5z" style="fill: rgb(12, 173, 241);"/>
  </g>
  <g>
    <path class="st5" d="M170.9,1.5c39.6-0.2,79.3,0,118.9,0.5c7.4,2.3,9.5,7.1,6.5,14.3c-1.3,2-3.2,3.1-5.5,3.4 c-40.3,0.7-80.6,0.7-120.9,0c-6.7-3.5-8.2-8.6-4.5-15.3C167.3,3.4,169.1,2.4,170.9,1.5z"/>
  </g>
  <g>
    <path class="st6" d="M169.9,59.7c40.3-0.2,80.6,0,120.9,0.5c6.5,2.9,8.4,7.7,5.5,14.3c-1.3,2-3.2,3.1-5.5,3.4 c-40.3,0.7-80.6,0.7-120.9,0c-6.7-3.5-8.2-8.6-4.5-15.3C167.1,61.7,168.6,60.7,169.9,59.7z"/>
  </g>
  <g>
    <path class="st7" d="M486.7,59.7c40-0.2,80,0,119.9,0.5c7.1,3.4,8.6,8.5,4.5,15.3c-1.4,0.9-2.9,1.8-4.5,2.5c-40,0.7-80,0.7-119.9,0 c-6.9-2.8-8.7-7.5-5.5-14.3C482.7,61.7,484.6,60.3,486.7,59.7z" style="fill: rgb(12, 173, 241);"/>
  </g>
  <g>
    <path class="st8" d="M941.5,64.6c0,3,0,5.9,0,8.9c-1.4,2.2-3.4,3.6-6,4.4c-40.3,0.7-80.6,0.7-120.9,0c-5.7-2.8-7.5-7.2-5.5-13.3 c1.6-2.3,3.8-3.8,6.5-4.4c40-0.7,80-0.7,119.9,0C938.1,60.9,940.1,62.4,941.5,64.6z" style="fill: rgb(12, 173, 241);"/>
  </g>
  <g>
    <path class="st9" d="M168.9,116.8c41-0.2,82,0,122.9,0.5c7.6,5.1,7.9,10.7,1,16.7c-41.6,0.7-83.3,0.7-124.9,0 C161.1,127.8,161.5,122.1,168.9,116.8z"/>
  </g>
  <g>
    <path class="st10" d="M485.7,116.8c40.6-0.2,81.3,0,121.9,0.5c7.5,5.1,7.9,10.7,1,16.7c-41.3,0.7-82.6,0.7-123.9,0 c-5.4-3.7-6.4-8.5-3-14.3C483.1,118.7,484.5,117.8,485.7,116.8z" style="fill: rgb(12, 173, 241);"/>
  </g>
  <g>
    <path class="st11" d="M941.5,121.7c0,3,0,5.9,0,8.9c-1.5,1.3-3.2,2.5-5,3.4c-41,0.7-82,0.7-122.9,0c-3.6-1.6-5.2-4.4-5-8.4 c-0.3-3.9,1.4-6.7,5-8.4c41-0.7,82-0.7,122.9,0C938.7,118.3,940.4,119.8,941.5,121.7z" style="fill: rgb(12, 173, 241);"/>
  </g>
</svg>