<?xml version="1.0" encoding="utf-8"?>
<!-- Generator: Adobe Illustrator 21.1.0, SVG Export Plug-In . SVG Version: 6.00 Build 0)  -->
<svg version="1.1" id="Layer_1" xmlns="http://www.w3.org/2000/svg" xmlns:xlink="http://www.w3.org/1999/xlink" x="0px" y="0px"
	 viewBox="0 0 841.9 595.3" style="enable-background:new 0 0 841.9 595.3;" xml:space="preserve">
<style type="text/css">
	.st0{clip-path:url(#SVGID_2_);fill:#FFFFFF;}
	.st1{clip-path:url(#SVGID_4_);}
	.st2{opacity:0.8;fill:url(#SVGID_5_);enable-background:new    ;}
	.st3{opacity:0.8;fill:url(#SVGID_6_);enable-background:new    ;}
	.st4{opacity:0.8;fill:url(#SVGID_7_);enable-background:new    ;}
	.st5{opacity:0.8;fill:url(#SVGID_8_);enable-background:new    ;}
	.st6{opacity:0.8;fill:url(#SVGID_9_);enable-background:new    ;}
	.st7{opacity:0.8;fill:url(#SVGID_10_);enable-background:new    ;}
	.st8{opacity:0.8;fill:url(#SVGID_11_);enable-background:new    ;}
	.st9{opacity:0.4;clip-path:url(#SVGID_13_);}
	.st10{opacity:0.8;fill:url(#SVGID_14_);enable-background:new    ;}
	.st11{opacity:0.8;fill:url(#SVGID_15_);enable-background:new    ;}
	.st12{opacity:0.8;fill:url(#SVGID_16_);enable-background:new    ;}
	.st13{opacity:0.8;fill:url(#SVGID_17_);enable-background:new    ;}
	.st14{opacity:0.8;fill:url(#SVGID_18_);enable-background:new    ;}
	.st15{opacity:0.8;fill:url(#SVGID_19_);enable-background:new    ;}
	.st16{opacity:0.8;fill:url(#SVGID_20_);enable-background:new    ;}
</style>
<g>
	<g>
		<defs>
			<rect id="SVGID_1_" width="841.9" height="595.3"/>
		</defs>
		<clipPath id="SVGID_2_">
			<use xlink:href="#SVGID_1_"  style="overflow:visible;"/>
		</clipPath>
		<rect class="st0" width="841.9" height="595.3"/>
	</g>
	<g>
		<defs>
			<rect id="SVGID_3_" width="841.9" height="595.3"/>
		</defs>
		<clipPath id="SVGID_4_">
			<use xlink:href="#SVGID_3_"  style="overflow:visible;"/>
		</clipPath>
		<g class="st1">
			
				<linearGradient id="SVGID_5_" gradientUnits="userSpaceOnUse" x1="721.4705" y1="339.3927" x2="435.4704" y2="-20.6071" gradientTransform="matrix(-1 0 0 1 841.9 -0.7)">
				<stop  offset="0" style="stop-color:#FFFFFF"/>
				<stop  offset="1" style="stop-color:#CCCCCC"/>
			</linearGradient>
			<polygon class="st2" points="688.9,-24.7 285.9,378.3 -35.1,378.3 -35.1,182.3 167.9,-20.7 			"/>
			
				<linearGradient id="SVGID_6_" gradientUnits="userSpaceOnUse" x1="338.7919" y1="554.9792" x2="66.7919" y2="296.979" gradientTransform="matrix(-1 0 0 1 841.9 -0.7)">
				<stop  offset="0" style="stop-color:#FFFFFF"/>
				<stop  offset="1" style="stop-color:#CCCCCC"/>
			</linearGradient>
			<polygon class="st3" points="887.7,408.1 688.9,606.8 224.4,606.8 552.9,278.3 887.7,278.3 			"/>
			
				<linearGradient id="SVGID_7_" gradientUnits="userSpaceOnUse" x1="386.4168" y1="486.8309" x2="793.4173" y2="57.8308" gradientTransform="matrix(-1 0 0 1 841.9 -0.7)">
				<stop  offset="0" style="stop-color:#FFFFFF"/>
				<stop  offset="1" style="stop-color:#CCCCCC"/>
			</linearGradient>
			<polygon class="st4" points="763.9,614.3 105.9,-9.7 -10.1,-9.7 -10.1,192.3 404.1,606.5 			"/>
			
				<linearGradient id="SVGID_8_" gradientUnits="userSpaceOnUse" x1="226.6738" y1="131.2383" x2="34.6736" y2="-22.7617" gradientTransform="matrix(-1 0 0 1 841.9 -0.7)">
				<stop  offset="0" style="stop-color:#FFFFFF"/>
				<stop  offset="1" style="stop-color:#CCCCCC"/>
			</linearGradient>
			<polygon class="st5" points="461.9,-16.7 679.9,201.3 863.9,201.3 863.9,-16.7 			"/>
			
				<linearGradient id="SVGID_9_" gradientUnits="userSpaceOnUse" x1="349.9193" y1="47.0229" x2="823.9197" y2="530.0231" gradientTransform="matrix(-1 0 0 1 841.9 -0.7)">
				<stop  offset="0" style="stop-color:#FFFFFF"/>
				<stop  offset="1" style="stop-color:#CCCCCC"/>
			</linearGradient>
			<polygon class="st6" points="-10.1,531.3 547,-25.8 588.9,-25.8 -8.1,571.3 			"/>
			
				<linearGradient id="SVGID_10_" gradientUnits="userSpaceOnUse" x1="-9.2181" y1="287.4209" x2="365.3179" y2="669.0682" gradientTransform="matrix(-1 0 0 1 841.9 -0.7)">
				<stop  offset="0" style="stop-color:#FFFFFF"/>
				<stop  offset="1" style="stop-color:#CCCCCC"/>
			</linearGradient>
			<polygon class="st7" points="855.9,159.3 384.1,631.1 637.9,631.1 869.3,399.7 			"/>
			
				<linearGradient id="SVGID_11_" gradientUnits="userSpaceOnUse" x1="594.6193" y1="151.8763" x2="920.4914" y2="483.9356" gradientTransform="matrix(-1 0 0 1 841.9 -0.7)">
				<stop  offset="0" style="stop-color:#FFFFFF"/>
				<stop  offset="1" style="stop-color:#CCCCCC"/>
			</linearGradient>
			<polygon class="st8" points="189.9,614.3 507.2,297 198.7,-11.5 3.9,-11.5 312.5,297.1 1.4,608.2 			"/>
		</g>
	</g>
	<g>
		<defs>
			<rect id="SVGID_12_" width="841.9" height="595.3"/>
		</defs>
		<clipPath id="SVGID_13_">
			<use xlink:href="#SVGID_12_"  style="overflow:visible;"/>
		</clipPath>
		<g class="st9">
			
				<linearGradient id="SVGID_14_" gradientUnits="userSpaceOnUse" x1="869.3121" y1="356.8046" x2="445.0775" y2="-177.1968" gradientTransform="matrix(-1 0 0 1 841.9 -0.7)">
				<stop  offset="0" style="stop-color:#FFFFFF"/>
				<stop  offset="1" style="stop-color:#CCCCCC"/>
			</linearGradient>
			<polygon class="st10" points="815.8,-182.9 218.1,414.9 -258.1,414.9 -258.1,124.1 43,-177 			"/>
			
				<linearGradient id="SVGID_15_" gradientUnits="userSpaceOnUse" x1="301.6758" y1="676.5828" x2="-101.7921" y2="293.8812" gradientTransform="matrix(-1 0 0 1 841.9 -0.7)">
				<stop  offset="0" style="stop-color:#FFFFFF"/>
				<stop  offset="1" style="stop-color:#CCCCCC"/>
			</linearGradient>
			<polygon class="st11" points="1110.7,459 815.8,753.8 126.8,753.8 614.1,266.5 1110.7,266.5 			"/>
			
				<linearGradient id="SVGID_16_" gradientUnits="userSpaceOnUse" x1="372.291" y1="575.5093" x2="976.0103" y2="-60.8425" gradientTransform="matrix(-1 0 0 1 841.9 -0.7)">
				<stop  offset="0" style="stop-color:#FFFFFF"/>
				<stop  offset="1" style="stop-color:#CCCCCC"/>
			</linearGradient>
			<polygon class="st12" points="927.1,764.9 -48.9,-160.7 -221,-160.7 -221,139 393.5,753.4 			"/>
			
				<linearGradient id="SVGID_17_" gradientUnits="userSpaceOnUse" x1="135.3706" y1="48.0238" x2="-149.4307" y2="-180.4104" gradientTransform="matrix(-1 0 0 1 841.9 -0.7)">
				<stop  offset="0" style="stop-color:#FFFFFF"/>
				<stop  offset="1" style="stop-color:#CCCCCC"/>
			</linearGradient>
			<polygon class="st13" points="479.1,-171.1 802.5,152.3 1075.4,152.3 1075.4,-171.1 			"/>
			
				<linearGradient id="SVGID_18_" gradientUnits="userSpaceOnUse" x1="318.1497" y1="-76.8558" x2="1021.2526" y2="639.5967" gradientTransform="matrix(-1 0 0 1 841.9 -0.7)">
				<stop  offset="0" style="stop-color:#FFFFFF"/>
				<stop  offset="1" style="stop-color:#CCCCCC"/>
			</linearGradient>
			<polygon class="st14" points="-221,641.8 605.3,-184.5 667.5,-184.5 -218.1,701.1 			"/>
			
				<linearGradient id="SVGID_19_" gradientUnits="userSpaceOnUse" x1="-214.558" y1="279.7221" x2="341.0052" y2="845.8337" gradientTransform="matrix(-1 0 0 1 841.9 -0.7)">
				<stop  offset="0" style="stop-color:#FFFFFF"/>
				<stop  offset="1" style="stop-color:#CCCCCC"/>
			</linearGradient>
			<polygon class="st15" points="1063.6,90 363.8,789.8 740.2,789.8 1083.4,446.6 			"/>
			
				<linearGradient id="SVGID_20_" gradientUnits="userSpaceOnUse" x1="681.1085" y1="78.6912" x2="1164.4868" y2="571.2473" gradientTransform="matrix(-1 0 0 1 841.9 -0.7)">
				<stop  offset="0" style="stop-color:#FFFFFF"/>
				<stop  offset="1" style="stop-color:#CCCCCC"/>
			</linearGradient>
			<polygon class="st16" points="75.7,764.9 546.3,294.3 88.7,-163.3 -200.2,-163.3 257.5,294.5 -203.9,755.9 			"/>
		</g>
	</g>
</g>
</svg>
