<svg id="Layer_1" data-name="Layer 1" xmlns="http://www.w3.org/2000/svg" viewBox="0 0 275.45 292.82"><defs><style>.cls-1{fill:#fff;}</style></defs><title>slot_machine</title><path class="cls-1" d="M260.73,178.74a4.25,4.25,0,0,0,4.25-4.25V151.23h8.08a4.74,4.74,0,0,0,4.74-4.74V51.86a18,18,0,1,0-9.49,0v89.88H265V118.49a4.25,4.25,0,0,0-4.25-4.25H245.29V82.34C245.29,38.59,195.61,3,134.54,3S23.78,38.59,23.78,82.34V209.89L15.85,237.8a5.28,5.28,0,0,0-.2,1.45v51.25A5.32,5.32,0,0,0,21,295.82H248.11a5.32,5.32,0,0,0,5.32-5.32V239.26a5.3,5.3,0,0,0-.2-1.45l-7.93-27.92V178.74ZM273.07,20.59A14,14,0,0,1,287,34.54a1.9,1.9,0,1,1-3.8,0,10.17,10.17,0,0,0-10.15-10.15,1.9,1.9,0,1,1,0-3.8ZM246,122.74h10.47v47.49H246ZM134.54,12.57c53.72,0,97.8,29,101,65.52h-202C36.73,41.59,80.81,12.57,134.54,12.57ZM33.35,86.6H235.72V206.37H33.35Zm-1,128.28H236.76l5.58,19.63H26.74Zm151.35,28.63v14.27H85.42V243.51Zm59.71,42.25H25.71V244h51.2v18a4.25,4.25,0,0,0,4.25,4.25H187.91a4.25,4.25,0,0,0,4.25-4.25V244h51.2Z" transform="translate(-15.65 -3)"/><path class="cls-1" d="M47.13,187.32H96.32a4.25,4.25,0,0,0,4.25-4.25V109.91a4.25,4.25,0,0,0-4.25-4.25H47.13a4.25,4.25,0,0,0-4.25,4.25v73.16A4.25,4.25,0,0,0,47.13,187.32Zm4.25-73.16H92.07v64.65H51.38Z" transform="translate(-15.65 -3)"/><path class="cls-1" d="M85.64,126.07s-2.69,3.07-10.42,1.21c-5.07-1.22-10.71-1.6-14.63,1.06v-2.27H55.42v13.18h5.16s1.52-4.68,6.41-4.05,6.78,1.25,9,.92c-10.62,11.76-9.89,30.77-9.89,30.77H79.36S78.5,141.71,88,128.46Z" transform="translate(-15.65 -3)"/><path class="cls-1" d="M109.94,187.32h49.19a4.25,4.25,0,0,0,4.25-4.25V109.91a4.25,4.25,0,0,0-4.25-4.25H109.94a4.25,4.25,0,0,0-4.25,4.25v73.16A4.25,4.25,0,0,0,109.94,187.32Zm4.25-73.16h40.68v64.65H114.19Z" transform="translate(-15.65 -3)"/><path class="cls-1" d="M148.45,126.07s-2.69,3.07-10.42,1.21c-5.07-1.22-10.71-1.6-14.63,1.06v-2.27h-5.16v13.18h5.16s1.52-4.68,6.41-4.05,6.78,1.25,9,.92c-10.62,11.76-9.89,30.77-9.89,30.77h13.29s-.86-25.19,8.67-38.43Z" transform="translate(-15.65 -3)"/><path class="cls-1" d="M172.75,187.32h49.19a4.25,4.25,0,0,0,4.25-4.25V109.91a4.25,4.25,0,0,0-4.25-4.25H172.75a4.25,4.25,0,0,0-4.25,4.25v73.16A4.25,4.25,0,0,0,172.75,187.32ZM177,114.16h40.68v64.65H177Z" transform="translate(-15.65 -3)"/><path class="cls-1" d="M211.26,126.07s-2.69,3.07-10.42,1.21c-5.07-1.22-10.71-1.6-14.63,1.06v-2.27H181v13.18h5.16s1.52-4.68,6.41-4.05,6.78,1.25,9,.92c-10.62,11.76-9.89,30.77-9.89,30.77H205s-.86-25.19,8.67-38.43Z" transform="translate(-15.65 -3)"/><path class="cls-1" d="M92.08,40.42a4.93,4.93,0,0,0,1.26-.18c1.18,4.45,8.44,30.85,8.44,30.85h65.51s7.26-26.4,8.44-30.85a5,5,0,1,0-1.25-.52c-3.39,5.26-9.7,13.39-15.65,12.1s-8.42-11.29-9.38-17.49a5,5,0,1,0-2-.18c-2,5.85-6.31,15.06-12.92,15.06S123.66,40,121.62,34.15a5,5,0,1,0-2,.18c-1,6.19-3.42,16.2-9.38,17.49S98,45,94.59,39.71a4.93,4.93,0,1,0-2.51.71Z" transform="translate(-15.65 -3)"/></svg>