<svg xmlns="http://www.w3.org/2000/svg" fit="" preserveAspectRatio="xMidYMid meet" focusable="false" viewBox="0 0 32 32" width="64" height="64" title="footer-agelimit">
<title>footer-agelimit</title>
<path fill="#fff" d="M16.003 32c-4.272 0-8.295-1.663-11.318-4.686s-4.686-7.039-4.686-11.311 1.663-8.295 4.686-11.318c3.023-3.023 7.039-4.686 11.318-4.686s8.295 1.663 11.318 4.686c3.023 3.023 4.686 7.039 4.686 11.318s-1.663 8.295-4.686 11.318c-3.030 3.016-7.046 4.679-11.318 4.679zM16.003 3.934c-6.659 0-12.070 5.41-12.070 12.070s5.41 12.070 12.070 12.070 12.070-5.41 12.070-12.070-5.417-12.070-12.070-12.070z"></path>
<path fill="#fff" d="M11.221 9.137v13.968h-3.485v-7.488c0-1.083-0.028-1.732-0.076-1.953-0.055-0.221-0.193-0.386-0.428-0.497s-0.752-0.166-1.56-0.166h-0.345v-1.629c1.684-0.366 2.967-1.111 3.837-2.236h2.056z"></path>
<path fill="#fff" d="M18.702 15.182c0.511 0.207 0.904 0.518 1.18 0.932s0.414 1.394 0.414 2.94c0 1.132-0.11 1.96-0.331 2.498s-0.642 0.973-1.277 1.318-1.484 0.511-2.546 0.511c-1.035 0-1.856-0.166-2.457-0.49-0.607-0.331-1.035-0.766-1.297-1.304s-0.393-1.442-0.393-2.705c0-0.849 0.062-1.58 0.193-2.201s0.538-1.118 1.221-1.491c-0.435-0.207-0.752-0.538-0.973-0.987-0.214-0.449-0.324-1.021-0.324-1.718 0-1.201 0.331-2.105 1.001-2.705s1.663-0.904 2.995-0.904c1.539 0 2.595 0.317 3.181 0.959 0.587 0.635 0.883 1.553 0.883 2.733 0 0.752-0.097 1.297-0.29 1.629-0.186 0.324-0.587 0.656-1.18 0.987zM16.811 17.991c0-0.538-0.055-0.89-0.166-1.063s-0.283-0.262-0.518-0.262c-0.228 0-0.393 0.083-0.497 0.255s-0.152 0.524-0.152 1.077v1.815c0 0.607 0.055 0.994 0.166 1.166s0.29 0.262 0.531 0.262c0.248 0 0.414-0.090 0.504-0.262 0.083-0.173 0.131-0.573 0.131-1.187v-1.801zM16.742 12.18c0-0.469-0.041-0.787-0.124-0.939s-0.242-0.228-0.476-0.228c-0.228 0-0.386 0.083-0.469 0.248s-0.124 0.469-0.124 0.918v1.063c0 0.421 0.048 0.711 0.138 0.87s0.248 0.242 0.469 0.242c0.228 0 0.386-0.076 0.469-0.235s0.124-0.483 0.124-0.98v-0.959z"></path>
<path fill="#fff" d="M20.524 15.237h2.615v-2.622h1.78v2.622h2.629v1.78h-2.629v2.609h-1.78v-2.609h-2.615v-1.78z"></path>
</svg>