<svg width="132" height="50" viewBox="0 0 132 50" fill="none" xmlns="http://www.w3.org/2000/svg">
<g clip-path="url(#clip0_1995_19628)">
<path d="M0 33.6234C13.6786 24.8253 24.9085 13.859 33.6898 0.265747C33.9853 0.515929 34.2808 0.766111 34.5764 1.01629C39.2625 5.64466 43.9487 10.3147 48.6771 14.9014C49.437 15.6103 49.4792 16.194 48.9304 17.0697C46.2285 21.5312 42.9355 25.5342 39.4736 29.412C34.4497 34.9994 28.9192 40.0447 22.9665 44.6731C19.1669 47.6336 13.4675 47.3417 10.1745 43.8391C7.17702 40.6285 3.92625 37.6263 0.802137 34.5407C0.506613 34.2488 0.253307 33.9153 0 33.6234Z" fill="#37E3EB"/>
<path d="M46.9885 10.3564C49.6905 8.35499 52.0969 6.22844 54.7988 4.60225C57.9652 2.68419 62.2714 3.22625 64.9733 5.76977C68.6885 9.23063 72.1926 12.8583 75.8233 16.4025C75.9077 16.4859 75.9499 16.5693 75.9921 16.6527C62.3558 25.3674 51.1259 36.4171 42.429 49.8018C39.1783 46.5912 35.9275 43.3805 32.5923 40.0864C34.0699 38.5853 35.7586 37.0425 37.3207 35.3747C42.7246 29.6622 47.8329 23.7412 51.9702 16.9863C52.4769 16.1523 52.4769 15.652 51.7169 14.9431C50.1549 13.5671 48.7195 12.066 46.9885 10.3564Z" fill="#FF4CAB"/>
<path d="M94.0645 42.6789C92.3793 43.9734 90.6192 44.4542 88.7093 44.4172C85.339 44.3803 82.8674 42.272 82.2682 38.9802C81.4818 34.5048 83.9159 29.8815 87.9604 28.1801C91.1435 26.8486 93.8772 27.3294 96.3114 29.7706C96.3488 29.6966 96.4612 29.6596 96.4612 29.5856C96.8357 27.9582 96.8357 27.9582 98.5957 27.9582C99.3822 27.9582 100.131 27.9582 100.992 27.9582C100.019 33.3583 99.0826 38.6104 98.1464 43.8994C96.7608 43.8994 95.4126 43.8994 94.0645 43.8994C94.0645 43.5666 94.0645 43.2337 94.0645 42.6789ZM91.6678 31.5089C88.4846 31.5089 85.9756 34.3569 86.4624 37.5008C86.7246 39.1282 87.8855 40.2378 89.5706 40.4227C92.3044 40.7186 94.8509 38.8323 95.3377 36.1692C95.8245 33.3952 94.3266 31.5089 91.6678 31.5089Z" fill="#262626"/>
<path d="M110.167 50.2247C110.617 47.6357 111.066 45.1576 111.478 42.7904C110.354 43.3083 109.268 44.011 108.108 44.2699C103.651 45.2685 100.655 42.4206 101.404 37.8712C101.891 34.8013 102.49 31.7684 103.052 28.6985C103.089 28.4396 103.464 28.0328 103.689 28.0328C104.85 27.9588 106.048 27.9958 107.359 27.9958C106.984 30.0301 106.647 31.9534 106.31 33.8767C106.123 35.0233 105.861 36.1698 105.711 37.3164C105.336 39.6466 106.759 40.9781 109.156 40.4973C110.991 40.1274 112.189 38.8329 112.564 36.7986C113.013 34.2096 113.5 31.5835 113.912 28.9944C114.024 28.2547 114.287 27.9218 115.11 27.9958C116.122 28.0698 117.133 28.0328 118.331 28.0328C118.106 29.4013 117.882 30.5849 117.694 31.7684C116.646 37.6863 115.597 43.5672 114.549 49.485C114.436 50.1138 114.212 50.2987 113.575 50.2617C112.452 50.1878 111.366 50.2247 110.167 50.2247Z" fill="#262626"/>
<path d="M64.293 43.9361C64.967 40.3484 65.4539 36.8347 66.2777 33.3949C67.2888 29.1785 72.0448 26.5524 76.3139 27.699C79.4596 28.5497 81.3695 31.1388 81.0324 34.5415C80.7703 37.1306 80.2086 39.7197 79.7966 42.2717C79.7217 42.7895 79.6094 43.3073 79.4971 43.8621C78.1489 43.8621 76.8008 43.8621 75.3403 43.8621C75.565 42.4936 75.7897 41.1621 76.0143 39.8306C76.2765 38.3511 76.5386 36.8717 76.8008 35.3922C77.1004 33.5429 76.4637 32.0634 75.0781 31.6196C73.4304 31.0648 71.558 31.7675 70.7716 33.4689C70.2847 34.5785 70.06 35.7991 69.7979 37.0196C69.386 39.0539 69.0115 41.0882 68.7119 43.1224C68.5995 43.7142 68.4123 43.9731 67.7757 43.9361C66.6148 43.9361 65.4913 43.9361 64.293 43.9361Z" fill="#262626"/>
<path d="M132 30.9545C130.764 31.5833 129.566 32.1751 128.33 32.7669C127.693 31.6573 126.757 31.1025 125.521 31.2134C125.109 31.2504 124.66 31.3984 124.285 31.6203C123.312 32.2121 123.387 33.2847 124.398 33.7655C124.885 33.9874 125.371 34.1354 125.896 34.2833C126.457 34.4682 127.019 34.6162 127.581 34.8011C131.363 36.0957 132.187 39.9792 129.266 42.7163C125.971 45.7861 119.342 44.6765 117.545 40.719C117.507 40.682 117.507 40.608 117.47 40.4231C118.668 39.8313 119.866 39.2395 121.177 38.5738C121.964 40.3121 123.387 40.756 125.109 40.534C125.484 40.4971 125.858 40.3861 126.158 40.1642C126.982 39.6464 126.982 38.7957 126.12 38.3149C125.559 38.019 124.922 37.834 124.285 37.6121C123.574 37.3532 122.787 37.1313 122.076 36.8354C119.454 35.6888 118.593 33.4696 119.792 30.9175C120.952 28.4394 123.199 27.5148 125.821 27.4408C128.742 27.4408 130.914 28.6614 132 30.9545Z" fill="#262626"/>
</g>
<defs>
<clipPath id="clip0_1995_19628">
<rect width="132" height="50" fill="white"/>
</clipPath>
</defs>
</svg>
